<?xml version="1.0" encoding="UTF-8"?>
<svg xmlns="http://www.w3.org/2000/svg" xmlns:xlink="http://www.w3.org/1999/xlink" width="854" height="480" viewBox="0 0 854 480">
<defs>
<g>
<g id="glyph-0-0">
<path d="M 3.46875 -1.28125 C 3.46875 -0.84375 3.328125 -0.503906 3.046875 -0.265625 C 2.765625 -0.0351562 2.363281 0.078125 1.84375 0.078125 C 1.34375 0.078125 0.945312 -0.0351562 0.65625 -0.265625 C 0.375 -0.492188 0.207031 -0.820312 0.15625 -1.25 L 1.078125 -1.328125 C 1.140625 -0.890625 1.394531 -0.671875 1.84375 -0.671875 C 2.0625 -0.671875 2.226562 -0.722656 2.34375 -0.828125 C 2.46875 -0.941406 2.53125 -1.109375 2.53125 -1.328125 C 2.53125 -1.535156 2.457031 -1.691406 2.3125 -1.796875 C 2.164062 -1.910156 1.945312 -1.96875 1.65625 -1.96875 L 1.328125 -1.96875 L 1.328125 -2.703125 L 1.625 -2.703125 C 1.894531 -2.703125 2.09375 -2.753906 2.21875 -2.859375 C 2.351562 -2.960938 2.421875 -3.117188 2.421875 -3.328125 C 2.421875 -3.515625 2.367188 -3.660156 2.265625 -3.765625 C 2.160156 -3.867188 2.007812 -3.921875 1.8125 -3.921875 C 1.613281 -3.921875 1.457031 -3.867188 1.34375 -3.765625 C 1.226562 -3.660156 1.160156 -3.515625 1.140625 -3.328125 L 0.234375 -3.390625 C 0.273438 -3.785156 0.4375 -4.09375 0.71875 -4.3125 C 1 -4.539062 1.367188 -4.65625 1.828125 -4.65625 C 2.304688 -4.65625 2.679688 -4.546875 2.953125 -4.328125 C 3.222656 -4.117188 3.359375 -3.820312 3.359375 -3.4375 C 3.359375 -3.144531 3.269531 -2.90625 3.09375 -2.71875 C 2.925781 -2.539062 2.6875 -2.421875 2.375 -2.359375 L 2.375 -2.34375 C 2.726562 -2.300781 3 -2.1875 3.1875 -2 C 3.375 -1.8125 3.46875 -1.570312 3.46875 -1.28125 Z "/>
</g>
</g>
</defs>
<g fill="rgb(34.509804%, 76.862745%, 86.666667%)" fill-opacity="1">
<use xlink:href="#glyph-0-0" x="30" y="26.035156"/>
</g>
</svg>
