<?xml version="1.0" encoding="UTF-8"?>
<svg xmlns="http://www.w3.org/2000/svg" xmlns:xlink="http://www.w3.org/1999/xlink" width="854" height="480" viewBox="0 0 854 480">
<defs>
<g>
<g id="glyph-0-0">
<path d="M 3.75 -1.1875 C 3.75 -0.8125 3.613281 -0.519531 3.34375 -0.3125 C 3.070312 -0.101562 2.691406 0 2.203125 0 L 0.5 0 L 0.5 -4.203125 L 2.03125 -4.203125 C 3.019531 -4.203125 3.515625 -3.863281 3.515625 -3.1875 C 3.515625 -2.9375 3.441406 -2.722656 3.296875 -2.546875 C 3.160156 -2.378906 2.960938 -2.269531 2.703125 -2.21875 C 3.035156 -2.175781 3.289062 -2.0625 3.46875 -1.875 C 3.65625 -1.695312 3.75 -1.46875 3.75 -1.1875 Z M 2.9375 -3.109375 C 2.9375 -3.335938 2.859375 -3.5 2.703125 -3.59375 C 2.546875 -3.695312 2.320312 -3.75 2.03125 -3.75 L 1.078125 -3.75 L 1.078125 -2.421875 L 2.03125 -2.421875 C 2.332031 -2.421875 2.554688 -2.476562 2.703125 -2.59375 C 2.859375 -2.707031 2.9375 -2.878906 2.9375 -3.109375 Z M 3.171875 -1.234375 C 3.171875 -1.722656 2.828125 -1.96875 2.140625 -1.96875 L 1.078125 -1.96875 L 1.078125 -0.453125 L 2.171875 -0.453125 C 2.523438 -0.453125 2.78125 -0.515625 2.9375 -0.640625 C 3.09375 -0.773438 3.171875 -0.972656 3.171875 -1.234375 Z "/>
</g>
<g id="glyph-0-1">
<path d="M 0.421875 0 L 0.421875 -2.46875 C 0.421875 -2.695312 0.414062 -2.953125 0.40625 -3.234375 L 0.90625 -3.234375 C 0.925781 -2.859375 0.9375 -2.632812 0.9375 -2.5625 L 0.953125 -2.5625 C 1.035156 -2.84375 1.128906 -3.03125 1.234375 -3.125 C 1.347656 -3.226562 1.507812 -3.28125 1.71875 -3.28125 C 1.789062 -3.28125 1.863281 -3.269531 1.9375 -3.25 L 1.9375 -2.765625 C 1.863281 -2.785156 1.765625 -2.796875 1.640625 -2.796875 C 1.421875 -2.796875 1.25 -2.695312 1.125 -2.5 C 1.007812 -2.3125 0.953125 -2.039062 0.953125 -1.6875 L 0.953125 0 Z "/>
</g>
<g id="glyph-0-2">
<path d="M 1.234375 0.0625 C 0.910156 0.0625 0.664062 -0.0195312 0.5 -0.1875 C 0.34375 -0.363281 0.265625 -0.601562 0.265625 -0.90625 C 0.265625 -1.238281 0.375 -1.492188 0.59375 -1.671875 C 0.8125 -1.847656 1.164062 -1.941406 1.65625 -1.953125 L 2.375 -1.96875 L 2.375 -2.140625 C 2.375 -2.398438 2.316406 -2.585938 2.203125 -2.703125 C 2.097656 -2.816406 1.925781 -2.875 1.6875 -2.875 C 1.445312 -2.875 1.269531 -2.832031 1.15625 -2.75 C 1.050781 -2.675781 0.988281 -2.546875 0.96875 -2.359375 L 0.40625 -2.421875 C 0.5 -2.992188 0.929688 -3.28125 1.703125 -3.28125 C 2.109375 -3.28125 2.410156 -3.1875 2.609375 -3 C 2.816406 -2.820312 2.921875 -2.554688 2.921875 -2.203125 L 2.921875 -0.8125 C 2.921875 -0.65625 2.941406 -0.535156 2.984375 -0.453125 C 3.023438 -0.367188 3.101562 -0.328125 3.21875 -0.328125 C 3.269531 -0.328125 3.328125 -0.335938 3.390625 -0.359375 L 3.390625 -0.015625 C 3.253906 0.015625 3.117188 0.03125 2.984375 0.03125 C 2.785156 0.03125 2.640625 -0.0195312 2.546875 -0.125 C 2.453125 -0.226562 2.398438 -0.394531 2.390625 -0.625 L 2.375 -0.625 C 2.238281 -0.375 2.078125 -0.195312 1.890625 -0.09375 C 1.710938 0.0078125 1.492188 0.0625 1.234375 0.0625 Z M 1.359375 -0.34375 C 1.554688 -0.34375 1.726562 -0.382812 1.875 -0.46875 C 2.03125 -0.5625 2.148438 -0.6875 2.234375 -0.84375 C 2.328125 -1 2.375 -1.160156 2.375 -1.328125 L 2.375 -1.59375 L 1.796875 -1.578125 C 1.535156 -1.578125 1.335938 -1.550781 1.203125 -1.5 C 1.078125 -1.457031 0.976562 -1.382812 0.90625 -1.28125 C 0.84375 -1.1875 0.8125 -1.054688 0.8125 -0.890625 C 0.8125 -0.710938 0.859375 -0.578125 0.953125 -0.484375 C 1.046875 -0.390625 1.179688 -0.34375 1.359375 -0.34375 Z "/>
</g>
<g id="glyph-0-3">
<path d="M 0.40625 -3.90625 L 0.40625 -4.421875 L 0.953125 -4.421875 L 0.953125 -3.90625 Z M 0.40625 0 L 0.40625 -3.234375 L 0.953125 -3.234375 L 0.953125 0 Z "/>
</g>
<g id="glyph-0-4">
<path d="M 2.46875 0 L 2.46875 -2.046875 C 2.46875 -2.253906 2.441406 -2.414062 2.390625 -2.53125 C 2.347656 -2.65625 2.28125 -2.742188 2.1875 -2.796875 C 2.101562 -2.847656 1.972656 -2.875 1.796875 -2.875 C 1.535156 -2.875 1.328125 -2.785156 1.171875 -2.609375 C 1.023438 -2.429688 0.953125 -2.1875 0.953125 -1.875 L 0.953125 0 L 0.421875 0 L 0.421875 -2.53125 C 0.421875 -2.914062 0.414062 -3.148438 0.40625 -3.234375 L 0.90625 -3.234375 C 0.914062 -3.222656 0.921875 -3.191406 0.921875 -3.140625 C 0.921875 -3.097656 0.921875 -3.046875 0.921875 -2.984375 C 0.929688 -2.929688 0.9375 -2.828125 0.9375 -2.671875 L 0.953125 -2.671875 C 1.066406 -2.898438 1.203125 -3.054688 1.359375 -3.140625 C 1.523438 -3.234375 1.734375 -3.28125 1.984375 -3.28125 C 2.335938 -3.28125 2.59375 -3.191406 2.75 -3.015625 C 2.914062 -2.847656 3 -2.5625 3 -2.15625 L 3 0 Z "/>
</g>
<g id="glyph-0-5">
<path d="M 0.265625 -1.390625 L 0.265625 -1.859375 L 1.765625 -1.859375 L 1.765625 -1.390625 Z "/>
</g>
<g id="glyph-0-6">
<path d="M 3.140625 -1.609375 C 3.140625 -1.046875 3.015625 -0.625 2.765625 -0.34375 C 2.515625 -0.0703125 2.15625 0.0625 1.6875 0.0625 C 1.21875 0.0625 0.859375 -0.078125 0.609375 -0.359375 C 0.367188 -0.648438 0.25 -1.066406 0.25 -1.609375 C 0.25 -2.722656 0.734375 -3.28125 1.703125 -3.28125 C 2.191406 -3.28125 2.550781 -3.144531 2.78125 -2.875 C 3.019531 -2.601562 3.140625 -2.179688 3.140625 -1.609375 Z M 2.578125 -1.609375 C 2.578125 -2.054688 2.507812 -2.378906 2.375 -2.578125 C 2.25 -2.785156 2.03125 -2.890625 1.71875 -2.890625 C 1.394531 -2.890625 1.164062 -2.785156 1.03125 -2.578125 C 0.894531 -2.367188 0.828125 -2.046875 0.828125 -1.609375 C 0.828125 -1.191406 0.894531 -0.875 1.03125 -0.65625 C 1.164062 -0.445312 1.378906 -0.34375 1.671875 -0.34375 C 1.992188 -0.34375 2.222656 -0.441406 2.359375 -0.640625 C 2.503906 -0.847656 2.578125 -1.171875 2.578125 -1.609375 Z "/>
</g>
<g id="glyph-0-7">
<path d="M 0.40625 0 L 0.40625 -4.421875 L 0.953125 -4.421875 L 0.953125 0 Z "/>
</g>
<g id="glyph-0-8">
<path d="M 0.5625 1.265625 C 0.414062 1.265625 0.296875 1.253906 0.203125 1.234375 L 0.203125 0.828125 C 0.273438 0.835938 0.359375 0.84375 0.453125 0.84375 C 0.785156 0.84375 1.050781 0.597656 1.25 0.109375 L 1.296875 -0.015625 L 0.015625 -3.234375 L 0.59375 -3.234375 L 1.265625 -1.4375 C 1.273438 -1.414062 1.285156 -1.382812 1.296875 -1.34375 C 1.316406 -1.300781 1.363281 -1.171875 1.4375 -0.953125 C 1.507812 -0.734375 1.550781 -0.609375 1.5625 -0.578125 L 1.765625 -1.171875 L 2.46875 -3.234375 L 3.046875 -3.234375 L 1.796875 0 C 1.671875 0.34375 1.546875 0.597656 1.421875 0.765625 C 1.304688 0.929688 1.175781 1.054688 1.03125 1.140625 C 0.894531 1.222656 0.738281 1.265625 0.5625 1.265625 Z "/>
</g>
</g>
</defs>
<g fill="rgb(51.372549%, 75.686275%, 40.392157%)" fill-opacity="1">
<use xlink:href="#glyph-0-0" x="30" y="25.53125"/>
<use xlink:href="#glyph-0-1" x="34" y="25.53125"/>
<use xlink:href="#glyph-0-2" x="36" y="25.53125"/>
<use xlink:href="#glyph-0-3" x="39" y="25.53125"/>
<use xlink:href="#glyph-0-4" x="40" y="25.53125"/>
<use xlink:href="#glyph-0-5" x="43" y="25.53125"/>
<use xlink:href="#glyph-0-6" x="45" y="25.53125"/>
<use xlink:href="#glyph-0-4" x="48" y="25.53125"/>
<use xlink:href="#glyph-0-7" x="51" y="25.53125"/>
<use xlink:href="#glyph-0-8" x="52" y="25.53125"/>
</g>
</svg>
