<?xml version="1.0" encoding="UTF-8"?>
<svg xmlns="http://www.w3.org/2000/svg" xmlns:xlink="http://www.w3.org/1999/xlink" width="854" height="480" viewBox="0 0 854 480">
<defs>
<g>
<g id="glyph-0-0">
<path d="M 1.3125 -0.828125 L 2.859375 -0.828125 L 2.859375 -6.40625 L 1.203125 -6.03125 L 1.203125 -6.921875 L 2.84375 -7.296875 L 3.828125 -7.296875 L 3.828125 -0.828125 L 5.34375 -0.828125 L 5.34375 0 L 1.3125 0 Z "/>
</g>
<g id="glyph-0-1">
<path d="M 1.828125 -0.828125 L 5.171875 -0.828125 L 5.171875 0 L 0.75 0 L 0.75 -0.828125 C 1.351562 -1.472656 1.878906 -2.039062 2.328125 -2.53125 C 2.785156 -3.019531 3.101562 -3.363281 3.28125 -3.5625 C 3.601562 -3.96875 3.820312 -4.289062 3.9375 -4.53125 C 4.050781 -4.78125 4.109375 -5.03125 4.109375 -5.28125 C 4.109375 -5.695312 3.988281 -6.019531 3.75 -6.25 C 3.507812 -6.476562 3.179688 -6.59375 2.765625 -6.59375 C 2.472656 -6.59375 2.160156 -6.535156 1.828125 -6.421875 C 1.503906 -6.316406 1.160156 -6.15625 0.796875 -5.9375 L 0.796875 -6.9375 C 1.128906 -7.09375 1.457031 -7.210938 1.78125 -7.296875 C 2.113281 -7.378906 2.4375 -7.421875 2.75 -7.421875 C 3.457031 -7.421875 4.03125 -7.226562 4.46875 -6.84375 C 4.90625 -6.46875 5.125 -5.972656 5.125 -5.359375 C 5.125 -5.046875 5.050781 -4.734375 4.90625 -4.421875 C 4.757812 -4.109375 4.523438 -3.765625 4.203125 -3.390625 C 4.015625 -3.179688 3.75 -2.890625 3.40625 -2.515625 C 3.0625 -2.140625 2.535156 -1.578125 1.828125 -0.828125 Z "/>
</g>
<g id="glyph-0-2">
<path d="M 2.453125 -1.484375 L 3.6875 -1.484375 L 3.6875 -0.46875 L 2.71875 1.40625 L 1.96875 1.40625 L 2.453125 -0.46875 Z "/>
</g>
<g id="glyph-0-3">
<path d="M 2.359375 -3.65625 C 2.359375 -3.84375 2.421875 -4 2.546875 -4.125 C 2.671875 -4.257812 2.820312 -4.328125 3 -4.328125 C 3.175781 -4.328125 3.328125 -4.257812 3.453125 -4.125 C 3.585938 -4 3.65625 -3.84375 3.65625 -3.65625 C 3.65625 -3.476562 3.59375 -3.328125 3.46875 -3.203125 C 3.34375 -3.078125 3.1875 -3.015625 3 -3.015625 C 2.8125 -3.015625 2.65625 -3.070312 2.53125 -3.1875 C 2.414062 -3.3125 2.359375 -3.46875 2.359375 -3.65625 Z M 3.015625 -6.640625 C 2.546875 -6.640625 2.195312 -6.390625 1.96875 -5.890625 C 1.75 -5.398438 1.640625 -4.648438 1.640625 -3.640625 C 1.640625 -2.628906 1.75 -1.875 1.96875 -1.375 C 2.195312 -0.882812 2.546875 -0.640625 3.015625 -0.640625 C 3.472656 -0.640625 3.8125 -0.882812 4.03125 -1.375 C 4.257812 -1.875 4.375 -2.628906 4.375 -3.640625 C 4.375 -4.648438 4.257812 -5.398438 4.03125 -5.890625 C 3.8125 -6.390625 3.472656 -6.640625 3.015625 -6.640625 Z M 3.015625 -7.421875 C 3.785156 -7.421875 4.367188 -7.101562 4.765625 -6.46875 C 5.171875 -5.832031 5.375 -4.890625 5.375 -3.640625 C 5.375 -2.390625 5.171875 -1.445312 4.765625 -0.8125 C 4.367188 -0.175781 3.785156 0.140625 3.015625 0.140625 C 2.234375 0.140625 1.644531 -0.175781 1.25 -0.8125 C 0.851562 -1.445312 0.65625 -2.390625 0.65625 -3.640625 C 0.65625 -4.890625 0.851562 -5.832031 1.25 -6.46875 C 1.644531 -7.101562 2.234375 -7.421875 3.015625 -7.421875 Z "/>
</g>
</g>
</defs>
<g fill="rgb(100%, 100%, 0%)" fill-opacity="1">
<use xlink:href="#glyph-0-0" x="30" y="29.282227"/>
<use xlink:href="#glyph-0-1" x="36" y="29.282227"/>
<use xlink:href="#glyph-0-2" x="42" y="29.282227"/>
<use xlink:href="#glyph-0-3" x="48" y="29.282227"/>
<use xlink:href="#glyph-0-3" x="54" y="29.282227"/>
<use xlink:href="#glyph-0-3" x="60" y="29.282227"/>
</g>
</svg>
