<?xml version="1.0" encoding="UTF-8"?>
<svg xmlns="http://www.w3.org/2000/svg" xmlns:xlink="http://www.w3.org/1999/xlink" width="854" height="480" viewBox="0 0 854 480">
<defs>
<g>
<g id="glyph-0-0">
<path d="M 0.5625 -0.25 L 1.578125 -0.25 L 1.578125 0 L 0.234375 0 L 0.234375 -0.25 C 0.410156 -0.445312 0.566406 -0.617188 0.703125 -0.765625 C 0.847656 -0.921875 0.945312 -1.03125 1 -1.09375 C 1.101562 -1.21875 1.171875 -1.316406 1.203125 -1.390625 C 1.242188 -1.460938 1.265625 -1.539062 1.265625 -1.625 C 1.265625 -1.75 1.226562 -1.84375 1.15625 -1.90625 C 1.082031 -1.976562 0.976562 -2.015625 0.84375 -2.015625 C 0.757812 -2.015625 0.664062 -2 0.5625 -1.96875 C 0.457031 -1.9375 0.351562 -1.882812 0.25 -1.8125 L 0.25 -2.125 C 0.351562 -2.175781 0.453125 -2.210938 0.546875 -2.234375 C 0.648438 -2.253906 0.75 -2.265625 0.84375 -2.265625 C 1.0625 -2.265625 1.234375 -2.207031 1.359375 -2.09375 C 1.492188 -1.976562 1.5625 -1.828125 1.5625 -1.640625 C 1.5625 -1.546875 1.539062 -1.453125 1.5 -1.359375 C 1.457031 -1.265625 1.382812 -1.15625 1.28125 -1.03125 C 1.226562 -0.96875 1.148438 -0.878906 1.046875 -0.765625 C 0.941406 -0.648438 0.78125 -0.476562 0.5625 -0.25 Z "/>
</g>
<g id="glyph-0-1">
<path d="M 0.71875 -1.125 C 0.71875 -1.175781 0.738281 -1.222656 0.78125 -1.265625 C 0.820312 -1.304688 0.867188 -1.328125 0.921875 -1.328125 C 0.972656 -1.328125 1.019531 -1.304688 1.0625 -1.265625 C 1.101562 -1.222656 1.125 -1.175781 1.125 -1.125 C 1.125 -1.0625 1.101562 -1.007812 1.0625 -0.96875 C 1.019531 -0.9375 0.972656 -0.921875 0.921875 -0.921875 C 0.859375 -0.921875 0.804688 -0.9375 0.765625 -0.96875 C 0.734375 -1.007812 0.71875 -1.0625 0.71875 -1.125 Z M 0.921875 -2.03125 C 0.773438 -2.03125 0.664062 -1.953125 0.59375 -1.796875 C 0.53125 -1.648438 0.5 -1.421875 0.5 -1.109375 C 0.5 -0.804688 0.53125 -0.578125 0.59375 -0.421875 C 0.664062 -0.273438 0.773438 -0.203125 0.921875 -0.203125 C 1.066406 -0.203125 1.171875 -0.273438 1.234375 -0.421875 C 1.304688 -0.578125 1.34375 -0.804688 1.34375 -1.109375 C 1.34375 -1.421875 1.304688 -1.648438 1.234375 -1.796875 C 1.171875 -1.953125 1.066406 -2.03125 0.921875 -2.03125 Z M 0.921875 -2.265625 C 1.160156 -2.265625 1.335938 -2.164062 1.453125 -1.96875 C 1.578125 -1.78125 1.640625 -1.492188 1.640625 -1.109375 C 1.640625 -0.734375 1.578125 -0.445312 1.453125 -0.25 C 1.335938 -0.0507812 1.160156 0.046875 0.921875 0.046875 C 0.679688 0.046875 0.5 -0.0507812 0.375 -0.25 C 0.257812 -0.445312 0.203125 -0.734375 0.203125 -1.109375 C 0.203125 -1.492188 0.257812 -1.78125 0.375 -1.96875 C 0.5 -2.164062 0.679688 -2.265625 0.921875 -2.265625 Z "/>
</g>
<g id="glyph-0-2">
<path d="M 1.09375 -1.953125 L 0.390625 -0.78125 L 1.09375 -0.78125 Z M 1.046875 -2.234375 L 1.40625 -2.234375 L 1.40625 -0.78125 L 1.703125 -0.78125 L 1.703125 -0.53125 L 1.40625 -0.53125 L 1.40625 0 L 1.09375 0 L 1.09375 -0.53125 L 0.15625 -0.53125 L 0.15625 -0.8125 Z "/>
</g>
</g>
</defs>
<g fill="rgb(53.333333%, 53.333333%, 53.333333%)" fill-opacity="1">
<use xlink:href="#glyph-0-0" x="30" y="22.835938"/>
<use xlink:href="#glyph-0-1" x="32" y="22.835938"/>
<use xlink:href="#glyph-0-0" x="34" y="22.835938"/>
<use xlink:href="#glyph-0-2" x="36" y="22.835938"/>
</g>
</svg>
