<?xml version="1.0" encoding="UTF-8"?>
<svg xmlns="http://www.w3.org/2000/svg" xmlns:xlink="http://www.w3.org/1999/xlink" width="854" height="480" viewBox="0 0 854 480">
<defs>
<g>
<g id="glyph-0-0">
<path d="M 3.734375 0 L 2.296875 0 L 2.296875 -6.03125 L 0.4375 -6.03125 L 0.4375 -7.296875 L 5.578125 -7.296875 L 5.578125 -6.03125 L 3.734375 -6.03125 Z "/>
</g>
<g id="glyph-0-1">
<path d="M 5.234375 -3.546875 L 5.234375 0 L 3.8125 0 L 3.8125 -3.328125 C 3.8125 -3.722656 3.753906 -4.003906 3.640625 -4.171875 C 3.523438 -4.335938 3.34375 -4.421875 3.09375 -4.421875 C 2.832031 -4.421875 2.628906 -4.304688 2.484375 -4.078125 C 2.335938 -3.847656 2.265625 -3.53125 2.265625 -3.125 L 2.265625 0 L 0.84375 0 L 0.84375 -7.59375 L 2.265625 -7.59375 L 2.265625 -4.65625 C 2.359375 -4.957031 2.523438 -5.1875 2.765625 -5.34375 C 3.015625 -5.507812 3.3125 -5.59375 3.65625 -5.59375 C 4.175781 -5.59375 4.566406 -5.421875 4.828125 -5.078125 C 5.097656 -4.742188 5.234375 -4.234375 5.234375 -3.546875 Z "/>
</g>
<g id="glyph-0-2">
<path d="M 5.375 -0.265625 C 5.050781 -0.128906 4.710938 -0.03125 4.359375 0.03125 C 4.015625 0.101562 3.648438 0.140625 3.265625 0.140625 C 2.359375 0.140625 1.660156 -0.101562 1.171875 -0.59375 C 0.691406 -1.082031 0.453125 -1.785156 0.453125 -2.703125 C 0.453125 -3.597656 0.679688 -4.300781 1.140625 -4.8125 C 1.609375 -5.332031 2.242188 -5.59375 3.046875 -5.59375 C 3.859375 -5.59375 4.488281 -5.351562 4.9375 -4.875 C 5.382812 -4.394531 5.609375 -3.722656 5.609375 -2.859375 L 5.609375 -2.265625 L 1.90625 -2.265625 C 1.90625 -1.835938 2.03125 -1.515625 2.28125 -1.296875 C 2.53125 -1.085938 2.90625 -0.984375 3.40625 -0.984375 C 3.738281 -0.984375 4.0625 -1.03125 4.375 -1.125 C 4.695312 -1.226562 5.03125 -1.378906 5.375 -1.578125 Z M 4.171875 -3.34375 C 4.160156 -3.71875 4.0625 -4.003906 3.875 -4.203125 C 3.6875 -4.398438 3.410156 -4.5 3.046875 -4.5 C 2.722656 -4.5 2.460938 -4.394531 2.265625 -4.1875 C 2.066406 -3.988281 1.953125 -3.707031 1.921875 -3.34375 Z "/>
</g>
<g id="glyph-0-3">
</g>
<g id="glyph-0-4">
<path d="M 2.234375 -6.078125 L 2.234375 -3.9375 L 2.828125 -3.9375 C 3.296875 -3.9375 3.625 -4.015625 3.8125 -4.171875 C 4.007812 -4.335938 4.109375 -4.617188 4.109375 -5.015625 C 4.109375 -5.398438 4.007812 -5.671875 3.8125 -5.828125 C 3.625 -5.992188 3.296875 -6.078125 2.828125 -6.078125 Z M 0.796875 -7.296875 L 2.765625 -7.296875 C 3.773438 -7.296875 4.5 -7.113281 4.9375 -6.75 C 5.375 -6.394531 5.59375 -5.816406 5.59375 -5.015625 C 5.59375 -4.203125 5.375 -3.617188 4.9375 -3.265625 C 4.5 -2.910156 3.773438 -2.734375 2.765625 -2.734375 L 2.234375 -2.734375 L 2.234375 0 L 0.796875 0 Z "/>
</g>
<g id="glyph-0-5">
<path d="M 3.421875 -2.5625 C 2.890625 -2.5625 2.515625 -2.492188 2.296875 -2.359375 C 2.085938 -2.222656 1.984375 -1.988281 1.984375 -1.65625 C 1.984375 -1.414062 2.054688 -1.21875 2.203125 -1.0625 C 2.347656 -0.914062 2.546875 -0.84375 2.796875 -0.84375 C 3.171875 -0.84375 3.460938 -0.984375 3.671875 -1.265625 C 3.878906 -1.554688 3.984375 -1.957031 3.984375 -2.46875 L 3.984375 -2.5625 Z M 5.40625 -3.125 L 5.40625 0 L 3.984375 0 L 3.984375 -0.609375 C 3.816406 -0.367188 3.597656 -0.179688 3.328125 -0.046875 C 3.054688 0.078125 2.757812 0.140625 2.4375 0.140625 C 1.8125 0.140625 1.320312 -0.0195312 0.96875 -0.34375 C 0.625 -0.675781 0.453125 -1.140625 0.453125 -1.734375 C 0.453125 -2.367188 0.660156 -2.835938 1.078125 -3.140625 C 1.492188 -3.441406 2.132812 -3.59375 3 -3.59375 L 3.984375 -3.59375 L 3.984375 -3.84375 C 3.984375 -4.070312 3.898438 -4.242188 3.734375 -4.359375 C 3.566406 -4.484375 3.320312 -4.546875 3 -4.546875 C 2.65625 -4.546875 2.320312 -4.5 2 -4.40625 C 1.6875 -4.320312 1.351562 -4.1875 1 -4 L 1 -5.21875 C 1.3125 -5.351562 1.628906 -5.445312 1.953125 -5.5 C 2.285156 -5.5625 2.632812 -5.59375 3 -5.59375 C 3.882812 -5.59375 4.503906 -5.410156 4.859375 -5.046875 C 5.222656 -4.691406 5.40625 -4.050781 5.40625 -3.125 Z "/>
</g>
<g id="glyph-0-6">
<path d="M 5.625 -3.953125 C 5.46875 -4.097656 5.28125 -4.207031 5.0625 -4.28125 C 4.851562 -4.351562 4.625 -4.390625 4.375 -4.390625 C 4.070312 -4.390625 3.804688 -4.335938 3.578125 -4.234375 C 3.359375 -4.128906 3.1875 -3.972656 3.0625 -3.765625 C 2.976562 -3.640625 2.921875 -3.488281 2.890625 -3.3125 C 2.867188 -3.144531 2.859375 -2.878906 2.859375 -2.515625 L 2.859375 0 L 1.421875 0 L 1.421875 -5.46875 L 2.859375 -5.46875 L 2.859375 -4.625 C 2.992188 -4.9375 3.207031 -5.175781 3.5 -5.34375 C 3.789062 -5.507812 4.128906 -5.59375 4.515625 -5.59375 C 4.710938 -5.59375 4.898438 -5.566406 5.078125 -5.515625 C 5.265625 -5.472656 5.445312 -5.410156 5.625 -5.328125 Z "/>
</g>
<g id="glyph-0-7">
<path d="M 3.375 -7.015625 L 3.375 -5.46875 L 5.234375 -5.46875 L 5.234375 -4.375 L 3.375 -4.375 L 3.375 -1.78125 C 3.375 -1.539062 3.429688 -1.363281 3.546875 -1.25 C 3.660156 -1.144531 3.859375 -1.09375 4.140625 -1.09375 L 5.234375 -1.09375 L 5.234375 0 L 4.03125 0 C 3.21875 0 2.664062 -0.128906 2.375 -0.390625 C 2.082031 -0.648438 1.9375 -1.132812 1.9375 -1.84375 L 1.9375 -4.375 L 0.546875 -4.375 L 0.546875 -5.46875 L 1.9375 -5.46875 L 1.9375 -7.015625 Z "/>
</g>
<g id="glyph-0-8">
<path d="M 3.46875 0.59375 C 3.28125 1.101562 3.050781 1.476562 2.78125 1.71875 C 2.507812 1.957031 2.179688 2.078125 1.796875 2.078125 L 0.625 2.078125 L 0.625 0.984375 L 1.203125 0.984375 C 1.492188 0.984375 1.707031 0.929688 1.84375 0.828125 C 1.976562 0.734375 2.117188 0.503906 2.265625 0.140625 L 2.375 -0.15625 L 0.28125 -5.46875 L 1.796875 -5.46875 L 3.046875 -1.921875 L 4.234375 -5.46875 L 5.75 -5.46875 Z "/>
</g>
<g id="glyph-0-9">
<path d="M 2.484375 -3.203125 C 1.765625 -3.472656 1.273438 -3.757812 1.015625 -4.0625 C 0.753906 -4.375 0.625 -4.785156 0.625 -5.296875 C 0.625 -5.960938 0.835938 -6.484375 1.265625 -6.859375 C 1.691406 -7.234375 2.273438 -7.421875 3.015625 -7.421875 C 3.347656 -7.421875 3.679688 -7.378906 4.015625 -7.296875 C 4.347656 -7.222656 4.679688 -7.113281 5.015625 -6.96875 L 5.015625 -5.5625 C 4.703125 -5.78125 4.382812 -5.945312 4.0625 -6.0625 C 3.75 -6.175781 3.4375 -6.234375 3.125 -6.234375 C 2.769531 -6.234375 2.5 -6.160156 2.3125 -6.015625 C 2.132812 -5.878906 2.046875 -5.679688 2.046875 -5.421875 C 2.046875 -5.222656 2.113281 -5.054688 2.25 -4.921875 C 2.382812 -4.785156 2.664062 -4.640625 3.09375 -4.484375 L 3.71875 -4.25 C 4.300781 -4.03125 4.726562 -3.742188 5 -3.390625 C 5.28125 -3.035156 5.421875 -2.585938 5.421875 -2.046875 C 5.421875 -1.316406 5.203125 -0.769531 4.765625 -0.40625 C 4.328125 -0.0390625 3.671875 0.140625 2.796875 0.140625 C 2.429688 0.140625 2.066406 0.09375 1.703125 0 C 1.347656 -0.0820312 1 -0.207031 0.65625 -0.375 L 0.65625 -1.859375 C 1.039062 -1.585938 1.410156 -1.382812 1.765625 -1.25 C 2.128906 -1.113281 2.488281 -1.046875 2.84375 -1.046875 C 3.195312 -1.046875 3.46875 -1.125 3.65625 -1.28125 C 3.851562 -1.445312 3.953125 -1.675781 3.953125 -1.96875 C 3.953125 -2.1875 3.882812 -2.375 3.75 -2.53125 C 3.625 -2.695312 3.441406 -2.832031 3.203125 -2.9375 Z "/>
</g>
<g id="glyph-0-10">
<path d="M 4.84375 -5.296875 L 4.84375 -4.046875 C 4.570312 -4.210938 4.296875 -4.335938 4.015625 -4.421875 C 3.734375 -4.515625 3.445312 -4.5625 3.15625 -4.5625 C 2.84375 -4.5625 2.601562 -4.515625 2.4375 -4.421875 C 2.269531 -4.328125 2.1875 -4.191406 2.1875 -4.015625 C 2.1875 -3.753906 2.535156 -3.539062 3.234375 -3.375 L 3.296875 -3.359375 L 3.703125 -3.265625 C 4.222656 -3.140625 4.601562 -2.9375 4.84375 -2.65625 C 5.082031 -2.382812 5.203125 -2.015625 5.203125 -1.546875 C 5.203125 -0.984375 5.019531 -0.5625 4.65625 -0.28125 C 4.289062 0 3.734375 0.140625 2.984375 0.140625 C 2.660156 0.140625 2.320312 0.109375 1.96875 0.046875 C 1.625 -0.00390625 1.273438 -0.0859375 0.921875 -0.203125 L 0.921875 -1.453125 C 1.242188 -1.273438 1.566406 -1.140625 1.890625 -1.046875 C 2.222656 -0.953125 2.539062 -0.90625 2.84375 -0.90625 C 3.175781 -0.90625 3.425781 -0.953125 3.59375 -1.046875 C 3.769531 -1.140625 3.859375 -1.28125 3.859375 -1.46875 C 3.859375 -1.65625 3.796875 -1.796875 3.671875 -1.890625 C 3.554688 -1.984375 3.269531 -2.085938 2.8125 -2.203125 L 2.40625 -2.296875 C 1.863281 -2.410156 1.46875 -2.597656 1.21875 -2.859375 C 0.96875 -3.128906 0.84375 -3.488281 0.84375 -3.9375 C 0.84375 -4.457031 1.03125 -4.863281 1.40625 -5.15625 C 1.789062 -5.445312 2.328125 -5.59375 3.015625 -5.59375 C 3.328125 -5.59375 3.632812 -5.566406 3.9375 -5.515625 C 4.25 -5.472656 4.550781 -5.398438 4.84375 -5.296875 Z "/>
</g>
<g id="glyph-0-11">
<path d="M 3.375 -4.921875 C 3.476562 -5.148438 3.613281 -5.316406 3.78125 -5.421875 C 3.945312 -5.535156 4.148438 -5.59375 4.390625 -5.59375 C 4.859375 -5.59375 5.179688 -5.429688 5.359375 -5.109375 C 5.546875 -4.785156 5.640625 -4.109375 5.640625 -3.078125 L 5.640625 0 L 4.46875 0 L 4.46875 -3.515625 C 4.46875 -3.921875 4.4375 -4.191406 4.375 -4.328125 C 4.3125 -4.460938 4.195312 -4.53125 4.03125 -4.53125 C 3.875 -4.53125 3.757812 -4.457031 3.6875 -4.3125 C 3.625 -4.175781 3.59375 -3.910156 3.59375 -3.515625 L 3.59375 0 L 2.4375 0 L 2.4375 -3.515625 C 2.4375 -3.910156 2.40625 -4.175781 2.34375 -4.3125 C 2.28125 -4.457031 2.164062 -4.53125 2 -4.53125 C 1.84375 -4.53125 1.734375 -4.460938 1.671875 -4.328125 C 1.609375 -4.191406 1.578125 -3.921875 1.578125 -3.515625 L 1.578125 0 L 0.40625 0 L 0.40625 -5.46875 L 1.4375 -5.46875 L 1.4375 -4.90625 C 1.519531 -5.113281 1.648438 -5.28125 1.828125 -5.40625 C 2.003906 -5.53125 2.207031 -5.59375 2.4375 -5.59375 C 2.65625 -5.59375 2.851562 -5.523438 3.03125 -5.390625 C 3.21875 -5.265625 3.332031 -5.109375 3.375 -4.921875 Z "/>
</g>
</g>
</defs>
<g fill="rgb(34.509804%, 76.862745%, 86.666667%)" fill-opacity="1">
<use xlink:href="#glyph-0-0" x="30" y="29.282227"/>
<use xlink:href="#glyph-0-1" x="36" y="29.282227"/>
<use xlink:href="#glyph-0-2" x="42" y="29.282227"/>
<use xlink:href="#glyph-0-3" x="48" y="29.282227"/>
<use xlink:href="#glyph-0-4" x="54" y="29.282227"/>
<use xlink:href="#glyph-0-5" x="60" y="29.282227"/>
<use xlink:href="#glyph-0-6" x="66" y="29.282227"/>
<use xlink:href="#glyph-0-7" x="72" y="29.282227"/>
<use xlink:href="#glyph-0-8" x="78" y="29.282227"/>
<use xlink:href="#glyph-0-3" x="84" y="29.282227"/>
<use xlink:href="#glyph-0-9" x="90" y="29.282227"/>
<use xlink:href="#glyph-0-8" x="96" y="29.282227"/>
<use xlink:href="#glyph-0-10" x="102" y="29.282227"/>
<use xlink:href="#glyph-0-7" x="108" y="29.282227"/>
<use xlink:href="#glyph-0-2" x="114" y="29.282227"/>
<use xlink:href="#glyph-0-11" x="120" y="29.282227"/>
</g>
</svg>
